<svg xmlns="http://www.w3.org/2000/svg" viewBox="0 0 48 60" x="0px" y="0px"><title>Artboard 20</title><g data-name="Your Icons"><path d="M38,22h0a6,6,0,0,0-.37-2.1h0A6.16,6.16,0,0,0,36,17.52a6.14,6.14,0,0,0-.87-2.68h0a6.13,6.13,0,0,0-2.25-2.1,5.79,5.79,0,0,0-1-2.24A6,6,0,0,0,27,8H25V5a1,1,0,0,0-2,0V8H21a6,6,0,0,0-4.85,2.49,5.66,5.66,0,0,0-1,2.24A5.92,5.92,0,0,0,12,17.52a6,6,0,0,0-1.64,2.37A5.73,5.73,0,0,0,10,22h0a4.41,4.41,0,0,0-.54.46A5,5,0,0,0,10,30h0a5.73,5.73,0,0,0,.39,2.1,5.94,5.94,0,0,0,3.67,3.56,10.07,10.07,0,0,0,2,2.13A10.4,10.4,0,0,0,22.56,40h2.88A10.45,10.45,0,0,0,34,35.66a5.94,5.94,0,0,0,3.65-3.53A5.64,5.64,0,0,0,38,30h0a4.41,4.41,0,0,0,.54-.46A5,5,0,0,0,38,22Zm-25.8-.94h-.09a4.42,4.42,0,0,1,.15-.48,4.06,4.06,0,0,1,1.34-1.8A4,4,0,0,1,16,18H32a4.53,4.53,0,0,1,.74.07,3.87,3.87,0,0,1,1.66.73h0a4.17,4.17,0,0,1,1.35,1.8,4.42,4.42,0,0,1,.15.48h-.1A5.29,5.29,0,0,0,35,21H13A5.29,5.29,0,0,0,12.2,21.07Zm5.57-9.4A3.94,3.94,0,0,1,21,10h6a3.94,3.94,0,0,1,3.23,1.67l0,0a2.7,2.7,0,0,1,.22.33L30,12H18l-.47,0A2.71,2.71,0,0,1,17.77,11.67ZM14.6,15.9a4.17,4.17,0,0,1,1.82-1.59A4.28,4.28,0,0,1,18,14H30a4.18,4.18,0,0,1,1.57.31A4.09,4.09,0,0,1,33.4,15.9a3.07,3.07,0,0,1,.17.31,2.83,2.83,0,0,0-.4-.08,2.61,2.61,0,0,0-.27-.06A6.82,6.82,0,0,0,32,16H16a6.82,6.82,0,0,0-.9.07l-.27.05c-.13,0-.27.05-.4.09A3.07,3.07,0,0,1,14.6,15.9Zm-2.39,15A5.16,5.16,0,0,0,13,31h5.08a.29.29,0,0,1,0,.09c0,.15.07.3.11.44s0,.15.05.23l.12.33a3,3,0,0,0,.12.32,4.3,4.3,0,0,0,.37.69,3.51,3.51,0,0,0,.27.42l.14.18s.09.11.14.17l.11.13H16a3.79,3.79,0,0,1-1.07-.15h0a4,4,0,0,1-2.64-2.47,3,3,0,0,1-.15-.45Zm14.06,2.35-.06,0a4,4,0,0,1-1.4.59h0a4,4,0,0,1-1.6,0h0a4.32,4.32,0,0,1-.72-.23l-.06,0a4.77,4.77,0,0,1-.63-.34.1.1,0,0,0-.05,0,4,4,0,0,1-1.65-2.48A4.45,4.45,0,0,1,20,30a4,4,0,1,1,6.27,3.28Zm4.41,2.93A8.48,8.48,0,0,1,25.44,38H22.56a8.48,8.48,0,0,1-5.24-1.79L17.06,36H30.94Zm5-4.8a4,4,0,0,1-2.67,2.44A3.57,3.57,0,0,1,32,34H28.47l.09-.11c.08-.09.15-.19.23-.29l.12-.15a2.4,2.4,0,0,0,.18-.28.73.73,0,0,0,.05-.09,4.11,4.11,0,0,0,.27-.51c0-.06.07-.11.1-.18a2.7,2.7,0,0,0,.14-.4,1.55,1.55,0,0,0,.08-.23,2,2,0,0,0,.07-.26,3.24,3.24,0,0,0,.09-.4l0-.1H35a5.16,5.16,0,0,0,.79-.07h.1A3.11,3.11,0,0,1,35.73,31.41Zm1.41-3.3a3.06,3.06,0,0,1-.64.48A3,3,0,0,1,35,29H29.92a.14.14,0,0,1,0-.07,6.31,6.31,0,0,0-.23-.88l-.06-.16a5.58,5.58,0,0,0-.38-.82L29.16,27a5.91,5.91,0,0,0-.54-.77l0,0a6,6,0,0,0-.66-.67l-.08-.07a5.53,5.53,0,0,0-.74-.53L27,24.81a5.66,5.66,0,0,0-.82-.4L26,24.36a5.73,5.73,0,0,0-.9-.25l-.12,0a5.71,5.71,0,0,0-2,0l-.12,0a5.73,5.73,0,0,0-.9.25l-.14.05a5.66,5.66,0,0,0-.82.4l-.13.08a5.53,5.53,0,0,0-.74.53l-.08.07a6,6,0,0,0-.66.67l0,0a5.91,5.91,0,0,0-.54.77l-.07.11a6.22,6.22,0,0,0-.38.83l-.06.16a6.31,6.31,0,0,0-.23.88.14.14,0,0,1,0,.07H13a3,3,0,0,1-3-3,3,3,0,0,1,.86-2.11,3.06,3.06,0,0,1,.64-.48A3,3,0,0,1,13,23H35a3,3,0,0,1,3,3A3,3,0,0,1,37.14,28.11Z"/><path d="M12.5,37A2.5,2.5,0,0,0,10,39.5V40H9a1,1,0,0,0,0,2h1.05A2.5,2.5,0,0,0,15,42H16a1,1,0,0,0,0-2H15v-.5A2.5,2.5,0,0,0,12.5,37Zm.5,4.5a.5.5,0,0,1-1,0v-2a.5.5,0,0,1,1,0Z"/><path d="M38,6.05V5a1,1,0,0,0-2,0V6h-.5a2.5,2.5,0,0,0,0,5H36v1a1,1,0,0,0,2,0V11a2.5,2.5,0,0,0,0-4.9Zm-.5,3h-2a.5.5,0,0,1,0-1h2a.5.5,0,0,1,0,1Z"/></g><text x="0" y="63" fill="#000000" font-size="5px" font-weight="bold" font-family="'Helvetica Neue', Helvetica, Arial-Unicode, Arial, Sans-serif">Created by tezar tantular</text><text x="0" y="68" fill="#000000" font-size="5px" font-weight="bold" font-family="'Helvetica Neue', Helvetica, Arial-Unicode, Arial, Sans-serif">from the Noun Project</text></svg>